<mxfile host="app.diagrams.net" modified="2022-02-02T16:03:34.659Z" agent="5.0 (Macintosh; Intel Mac OS X 10_15_7) AppleWebKit/537.36 (KHTML, like Gecko) Chrome/97.0.4692.99 Safari/537.36" etag="_1e6Dy-4Q-ldWro-HBol" version="16.5.2" type="github">
  <diagram id="uzeWqnwKXu1-_gKhjPXf" name="Page-1">
    <mxGraphModel dx="948" dy="705" grid="1" gridSize="10" guides="1" tooltips="1" connect="1" arrows="1" fold="1" page="1" pageScale="1" pageWidth="827" pageHeight="1169" math="0" shadow="0">
      <root>
        <mxCell id="0" />
        <mxCell id="1" parent="0" />
        <mxCell id="JhrLA2LpPRyogHum-rHQ-1" value="&lt;font style=&quot;font-size: 18px&quot;&gt;MotoTour&lt;/font&gt;" style="rounded=0;whiteSpace=wrap;html=1;shadow=1;fillColor=#EBEBEB;strokeColor=#D9D9D9;" parent="1" vertex="1">
          <mxGeometry x="40" y="110" width="120" height="60" as="geometry" />
        </mxCell>
        <mxCell id="JhrLA2LpPRyogHum-rHQ-2" value="" style="rounded=0;whiteSpace=wrap;html=1;" parent="1" vertex="1">
          <mxGeometry x="70" y="200" width="730" height="460" as="geometry" />
        </mxCell>
        <mxCell id="JhrLA2LpPRyogHum-rHQ-3" value="&lt;span style=&quot;font-size: 14px ; background-color: rgb(51 , 255 , 51)&quot;&gt;&lt;b&gt;&lt;u&gt;HOME&lt;/u&gt;&lt;/b&gt;&lt;/span&gt;&lt;br&gt;&lt;br&gt;&lt;br&gt;&lt;br&gt;&lt;br&gt;&lt;br&gt;&lt;br&gt;&lt;br&gt;&lt;br&gt;&lt;br&gt;&lt;br&gt;&lt;br&gt;&lt;br&gt;&lt;br&gt;&lt;br&gt;&lt;br&gt;&lt;br&gt;" style="rounded=0;whiteSpace=wrap;html=1;" parent="1" vertex="1">
          <mxGeometry x="90" y="260" width="690" height="360" as="geometry" />
        </mxCell>
        <mxCell id="JhrLA2LpPRyogHum-rHQ-22" value="" style="edgeStyle=orthogonalEdgeStyle;rounded=0;orthogonalLoop=1;jettySize=auto;html=1;" parent="1" source="JhrLA2LpPRyogHum-rHQ-4" target="JhrLA2LpPRyogHum-rHQ-12" edge="1">
          <mxGeometry relative="1" as="geometry" />
        </mxCell>
        <mxCell id="JhrLA2LpPRyogHum-rHQ-24" style="edgeStyle=orthogonalEdgeStyle;rounded=0;orthogonalLoop=1;jettySize=auto;html=1;exitX=1;exitY=0.5;exitDx=0;exitDy=0;" parent="1" source="JhrLA2LpPRyogHum-rHQ-4" target="JhrLA2LpPRyogHum-rHQ-18" edge="1">
          <mxGeometry relative="1" as="geometry" />
        </mxCell>
        <mxCell id="JhrLA2LpPRyogHum-rHQ-4" value="&lt;font style=&quot;font-size: 14px&quot;&gt;&lt;font style=&quot;background-color: rgb(51 , 255 , 51)&quot;&gt;&lt;b&gt;TOURSLIST&lt;br&gt;&lt;/b&gt;&lt;/font&gt;&lt;div style=&quot;font-size: 12px&quot;&gt;&lt;span style=&quot;font-size: 14px&quot;&gt;tourname&lt;/span&gt;&lt;/div&gt;&lt;div style=&quot;font-size: 12px&quot;&gt;&lt;span style=&quot;font-size: 14px&quot;&gt;difficulty&lt;/span&gt;&lt;br&gt;&lt;/div&gt;&lt;div style=&quot;font-size: 12px&quot;&gt;&lt;span style=&quot;font-size: 14px&quot;&gt;ratingsAverage&lt;/span&gt;&lt;/div&gt;&lt;div style=&quot;font-size: 12px&quot;&gt;&lt;span style=&quot;font-size: 14px&quot;&gt;price&lt;/span&gt;&lt;br&gt;&lt;/div&gt;&lt;div style=&quot;font-size: 12px&quot;&gt;&lt;span style=&quot;font-size: 14px&quot;&gt;summary&lt;/span&gt;&lt;/div&gt;&lt;div style=&quot;font-size: 12px&quot;&gt;&lt;span style=&quot;font-size: 14px&quot;&gt;imageCover&lt;/span&gt;&lt;br&gt;&lt;/div&gt;&lt;div style=&quot;font-size: 12px&quot;&gt;&lt;br&gt;&lt;/div&gt;&lt;/font&gt;" style="rounded=0;whiteSpace=wrap;html=1;" parent="1" vertex="1">
          <mxGeometry x="100" y="340" width="180" height="270" as="geometry" />
        </mxCell>
        <mxCell id="JhrLA2LpPRyogHum-rHQ-5" value="&lt;font style=&quot;font-size: 11px&quot;&gt;&lt;b&gt;&lt;i&gt;useState()&amp;nbsp;&lt;br&gt;&amp;nbsp;useEffect()&lt;/i&gt;&lt;/b&gt;&lt;/font&gt;" style="text;html=1;strokeColor=none;fillColor=none;align=center;verticalAlign=middle;whiteSpace=wrap;rounded=0;fontFamily=Helvetica;fontSize=10;" parent="1" vertex="1">
          <mxGeometry x="657" y="580" width="170" height="30" as="geometry" />
        </mxCell>
        <mxCell id="JhrLA2LpPRyogHum-rHQ-6" value="&lt;u&gt;&lt;b style=&quot;background-color: rgb(51 , 255 , 51)&quot;&gt;FOOTER&lt;/b&gt;&lt;/u&gt;" style="rounded=0;whiteSpace=wrap;html=1;" parent="1" vertex="1">
          <mxGeometry x="70" y="660" width="730" height="50" as="geometry" />
        </mxCell>
        <mxCell id="JhrLA2LpPRyogHum-rHQ-7" value="&lt;span style=&quot;background-color: rgb(51 , 255 , 51)&quot;&gt;&lt;b&gt;&lt;u&gt;HEADER&lt;/u&gt;&lt;/b&gt;&lt;/span&gt;" style="rounded=0;whiteSpace=wrap;html=1;" parent="1" vertex="1">
          <mxGeometry x="70" y="150" width="730" height="50" as="geometry" />
        </mxCell>
        <mxCell id="JhrLA2LpPRyogHum-rHQ-8" value="&lt;span style=&quot;background-color: rgb(51 , 255 , 51)&quot;&gt;&amp;lt;&lt;b&gt;&lt;u&gt;NAV&lt;/u&gt;&lt;/b&gt;&amp;gt;&lt;/span&gt;" style="rounded=0;whiteSpace=wrap;html=1;" parent="1" vertex="1">
          <mxGeometry x="683" y="160" width="77.5" height="30" as="geometry" />
        </mxCell>
        <mxCell id="JhrLA2LpPRyogHum-rHQ-9" value="&lt;span style=&quot;font-size: 14px ; background-color: rgb(51 , 255 , 51)&quot;&gt;&lt;b&gt;&lt;u&gt;MAIN&lt;/u&gt;&lt;/b&gt;&lt;/span&gt;" style="text;html=1;strokeColor=none;fillColor=none;align=center;verticalAlign=middle;whiteSpace=wrap;rounded=0;" parent="1" vertex="1">
          <mxGeometry x="100" y="220" width="60" height="30" as="geometry" />
        </mxCell>
        <mxCell id="JhrLA2LpPRyogHum-rHQ-10" value="&lt;b&gt;Filter&lt;/b&gt; (name/ratings/price)" style="text;html=1;strokeColor=none;fillColor=none;align=center;verticalAlign=middle;whiteSpace=wrap;rounded=0;" parent="1" vertex="1">
          <mxGeometry x="550" y="220" width="110.5" height="30" as="geometry" />
        </mxCell>
        <mxCell id="JhrLA2LpPRyogHum-rHQ-11" value="&lt;b&gt;Pagination&lt;/b&gt; (1/10)" style="text;html=1;strokeColor=none;fillColor=none;align=center;verticalAlign=middle;whiteSpace=wrap;rounded=0;" parent="1" vertex="1">
          <mxGeometry x="405" y="630" width="60" height="30" as="geometry" />
        </mxCell>
        <mxCell id="JhrLA2LpPRyogHum-rHQ-23" value="" style="edgeStyle=orthogonalEdgeStyle;rounded=0;orthogonalLoop=1;jettySize=auto;html=1;" parent="1" source="JhrLA2LpPRyogHum-rHQ-12" target="JhrLA2LpPRyogHum-rHQ-18" edge="1">
          <mxGeometry relative="1" as="geometry" />
        </mxCell>
        <mxCell id="JhrLA2LpPRyogHum-rHQ-12" value="&lt;font style=&quot;font-size: 14px&quot;&gt;&lt;font style=&quot;background-color: rgb(51 , 255 , 51)&quot;&gt;&lt;b&gt;TOURCARD&lt;br&gt;&lt;/b&gt;&lt;/font&gt;&lt;div style=&quot;font-size: 12px&quot;&gt;&lt;div&gt;&lt;span style=&quot;font-size: 14px&quot;&gt;tourname&lt;/span&gt;&lt;/div&gt;&lt;div&gt;&lt;span style=&quot;font-size: 14px&quot;&gt;difficulty&lt;/span&gt;&lt;br&gt;&lt;/div&gt;&lt;div&gt;&lt;span style=&quot;font-size: 14px&quot;&gt;ratingsAverage&lt;/span&gt;&lt;/div&gt;&lt;div&gt;&lt;span style=&quot;font-size: 14px&quot;&gt;price&lt;/span&gt;&lt;br&gt;&lt;/div&gt;&lt;div&gt;&lt;span style=&quot;font-size: 14px&quot;&gt;summary&lt;/span&gt;&lt;/div&gt;&lt;div&gt;&lt;span style=&quot;font-size: 14px&quot;&gt;imageCover&lt;/span&gt;&lt;/div&gt;&lt;/div&gt;&lt;/font&gt;" style="rounded=0;whiteSpace=wrap;html=1;" parent="1" vertex="1">
          <mxGeometry x="310" y="340" width="181.43" height="270" as="geometry" />
        </mxCell>
        <mxCell id="JhrLA2LpPRyogHum-rHQ-13" value="&lt;b&gt;Order&lt;br&gt;&lt;/b&gt;&amp;nbsp;(- / +)" style="text;html=1;strokeColor=none;fillColor=none;align=center;verticalAlign=middle;whiteSpace=wrap;rounded=0;" parent="1" vertex="1">
          <mxGeometry x="680.25" y="220" width="110.5" height="30" as="geometry" />
        </mxCell>
        <mxCell id="JhrLA2LpPRyogHum-rHQ-14" value="SQL" style="shape=cylinder3;whiteSpace=wrap;html=1;boundedLbl=1;backgroundOutline=1;size=15;" parent="1" vertex="1">
          <mxGeometry x="720" y="270" width="50" height="70" as="geometry" />
        </mxCell>
        <mxCell id="JhrLA2LpPRyogHum-rHQ-16" value="TOURS" style="shape=cylinder3;whiteSpace=wrap;html=1;boundedLbl=1;backgroundOutline=1;size=15;" parent="1" vertex="1">
          <mxGeometry x="180" y="770" width="85.71" height="120" as="geometry" />
        </mxCell>
        <mxCell id="JhrLA2LpPRyogHum-rHQ-18" value="&lt;font&gt;&lt;font style=&quot;font-size: 14px ; background-color: rgb(51 , 255 , 51)&quot;&gt;&lt;b&gt;TOURDETAIL&lt;br&gt;&lt;/b&gt;&lt;/font&gt;&lt;div&gt;&lt;span style=&quot;font-size: 14px&quot;&gt;tourname&lt;/span&gt;&lt;/div&gt;&lt;div&gt;&lt;span style=&quot;font-size: 14px&quot;&gt;duration&lt;/span&gt;&lt;/div&gt;&lt;div&gt;&lt;span style=&quot;font-size: 14px&quot;&gt;maxGroupSize&lt;/span&gt;&lt;/div&gt;&lt;div&gt;&lt;span style=&quot;font-size: 14px&quot;&gt;difficulty&lt;/span&gt;&lt;/div&gt;&lt;div&gt;&lt;span style=&quot;font-size: 14px&quot;&gt;ratingsAverage&lt;/span&gt;&lt;/div&gt;&lt;div&gt;&lt;span style=&quot;font-size: 14px&quot;&gt;ratingsQuantity&lt;/span&gt;&lt;/div&gt;&lt;div&gt;&lt;span style=&quot;font-size: 14px&quot;&gt;price&lt;/span&gt;&lt;/div&gt;&lt;div&gt;&lt;span style=&quot;font-size: 14px&quot;&gt;summary&lt;/span&gt;&lt;/div&gt;&lt;div&gt;&lt;span style=&quot;font-size: 14px&quot;&gt;description&lt;/span&gt;&lt;/div&gt;&lt;div&gt;&lt;span style=&quot;font-size: 14px&quot;&gt;imageCover&lt;/span&gt;&lt;/div&gt;&lt;div&gt;&lt;span style=&quot;font-size: 14px&quot;&gt;images&lt;/span&gt;&lt;/div&gt;&lt;div&gt;&lt;span style=&quot;font-size: 14px&quot;&gt;createdAt&lt;/span&gt;&lt;/div&gt;&lt;div&gt;&lt;span style=&quot;font-size: 14px&quot;&gt;startDates&lt;/span&gt;&lt;/div&gt;&lt;/font&gt;" style="rounded=0;whiteSpace=wrap;html=1;" parent="1" vertex="1">
          <mxGeometry x="530" y="340" width="180" height="270" as="geometry" />
        </mxCell>
        <mxCell id="JhrLA2LpPRyogHum-rHQ-19" value="&lt;p class=&quot;p1&quot; style=&quot;margin: 0px ; font-stretch: normal ; line-height: normal ; font-family: &amp;#34;menlo&amp;#34; ; color: rgb(140 , 211 , 254) ; background-color: rgb(246 , 247 , 249)&quot;&gt;&lt;span class=&quot;s1&quot;&gt;tourname:&lt;/span&gt;&lt;span class=&quot;s2&quot; style=&quot;color: rgb(202 , 202 , 202)&quot;&gt; &lt;/span&gt;&lt;span class=&quot;s3&quot; style=&quot;color: rgb(67 , 192 , 160)&quot;&gt;String&lt;/span&gt;&lt;/p&gt;&lt;p class=&quot;p1&quot; style=&quot;margin: 0px ; font-stretch: normal ; line-height: normal ; font-family: &amp;#34;menlo&amp;#34; ; color: rgb(140 , 211 , 254) ; background-color: rgb(246 , 247 , 249)&quot;&gt;&lt;span class=&quot;s1&quot;&gt;duration:&lt;/span&gt;&lt;span class=&quot;s2&quot; style=&quot;color: rgb(202 , 202 , 202)&quot;&gt;&amp;nbsp;&lt;/span&gt;&lt;span class=&quot;s3&quot; style=&quot;color: rgb(67 , 192 , 160)&quot;&gt;Number&lt;/span&gt;&lt;/p&gt;&lt;p class=&quot;p1&quot; style=&quot;margin: 0px ; font-stretch: normal ; line-height: normal ; font-family: &amp;#34;menlo&amp;#34; ; color: rgb(140 , 211 , 254) ; background-color: rgb(246 , 247 , 249)&quot;&gt;&lt;span class=&quot;s1&quot;&gt;maxGroupSize:&lt;/span&gt;&lt;span class=&quot;s2&quot; style=&quot;color: rgb(202 , 202 , 202)&quot;&gt;&amp;nbsp;&lt;/span&gt;&lt;span class=&quot;s3&quot; style=&quot;color: rgb(67 , 192 , 160)&quot;&gt;Number&lt;/span&gt;&lt;/p&gt;&lt;p class=&quot;p1&quot; style=&quot;margin: 0px ; font-stretch: normal ; line-height: normal ; font-family: &amp;#34;menlo&amp;#34; ; color: rgb(140 , 211 , 254) ; background-color: rgb(246 , 247 , 249)&quot;&gt;&lt;span class=&quot;s1&quot;&gt;difficulty:&lt;/span&gt;&lt;span class=&quot;s2&quot; style=&quot;color: rgb(202 , 202 , 202)&quot;&gt;&amp;nbsp;&lt;/span&gt;&lt;span class=&quot;s3&quot; style=&quot;color: rgb(67 , 192 , 160)&quot;&gt;String&lt;/span&gt;&lt;/p&gt;&lt;p class=&quot;p1&quot; style=&quot;margin: 0px ; font-stretch: normal ; line-height: normal ; font-family: &amp;#34;menlo&amp;#34; ; color: rgb(140 , 211 , 254) ; background-color: rgb(246 , 247 , 249)&quot;&gt;&lt;span class=&quot;s1&quot;&gt;ratingsAverage:&lt;/span&gt;&lt;span class=&quot;s2&quot; style=&quot;color: rgb(202 , 202 , 202)&quot;&gt;&amp;nbsp;&lt;/span&gt;&lt;span class=&quot;s3&quot; style=&quot;color: rgb(67 , 192 , 160)&quot;&gt;Number&lt;/span&gt;&lt;/p&gt;&lt;p class=&quot;p1&quot; style=&quot;margin: 0px ; font-stretch: normal ; line-height: normal ; font-family: &amp;#34;menlo&amp;#34; ; color: rgb(140 , 211 , 254) ; background-color: rgb(246 , 247 , 249)&quot;&gt;&lt;span class=&quot;s1&quot;&gt;ratingsQuantity:&lt;/span&gt;&lt;span class=&quot;s2&quot; style=&quot;color: rgb(202 , 202 , 202)&quot;&gt;&amp;nbsp;&lt;/span&gt;&lt;span class=&quot;s3&quot; style=&quot;color: rgb(67 , 192 , 160)&quot;&gt;Number&lt;/span&gt;&lt;/p&gt;&lt;p class=&quot;p1&quot; style=&quot;margin: 0px ; font-stretch: normal ; line-height: normal ; font-family: &amp;#34;menlo&amp;#34; ; color: rgb(140 , 211 , 254) ; background-color: rgb(246 , 247 , 249)&quot;&gt;&lt;span class=&quot;s1&quot;&gt;price:&lt;/span&gt;&lt;span class=&quot;s2&quot; style=&quot;color: rgb(202 , 202 , 202)&quot;&gt;&amp;nbsp;&lt;/span&gt;&lt;span class=&quot;s3&quot; style=&quot;color: rgb(67 , 192 , 160)&quot;&gt;Number&lt;/span&gt;&lt;/p&gt;&lt;p class=&quot;p1&quot; style=&quot;margin: 0px ; font-stretch: normal ; line-height: normal ; font-family: &amp;#34;menlo&amp;#34; ; color: rgb(140 , 211 , 254) ; background-color: rgb(246 , 247 , 249)&quot;&gt;&lt;span class=&quot;s1&quot;&gt;summary:&lt;/span&gt;&lt;span class=&quot;s2&quot; style=&quot;color: rgb(202 , 202 , 202)&quot;&gt;&amp;nbsp;&lt;/span&gt;&lt;span class=&quot;s3&quot; style=&quot;color: rgb(67 , 192 , 160)&quot;&gt;String&lt;/span&gt;&lt;/p&gt;&lt;p class=&quot;p1&quot; style=&quot;margin: 0px ; font-stretch: normal ; line-height: normal ; font-family: &amp;#34;menlo&amp;#34; ; color: rgb(140 , 211 , 254) ; background-color: rgb(246 , 247 , 249)&quot;&gt;&lt;span class=&quot;s1&quot;&gt;description:&lt;/span&gt;&lt;span class=&quot;s2&quot; style=&quot;color: rgb(202 , 202 , 202)&quot;&gt;&amp;nbsp;&lt;/span&gt;&lt;span class=&quot;s3&quot; style=&quot;color: rgb(67 , 192 , 160)&quot;&gt;String&lt;/span&gt;&lt;/p&gt;&lt;p class=&quot;p1&quot; style=&quot;margin: 0px ; font-stretch: normal ; line-height: normal ; font-family: &amp;#34;menlo&amp;#34; ; color: rgb(140 , 211 , 254) ; background-color: rgb(246 , 247 , 249)&quot;&gt;&lt;span class=&quot;s1&quot;&gt;imageCover:&lt;/span&gt;&lt;span class=&quot;s2&quot; style=&quot;color: rgb(202 , 202 , 202)&quot;&gt;&amp;nbsp;&lt;/span&gt;&lt;span class=&quot;s3&quot; style=&quot;color: rgb(67 , 192 , 160)&quot;&gt;String&lt;/span&gt;&lt;/p&gt;&lt;p class=&quot;p1&quot; style=&quot;margin: 0px ; font-stretch: normal ; line-height: normal ; font-family: &amp;#34;menlo&amp;#34; ; color: rgb(140 , 211 , 254) ; background-color: rgb(246 , 247 , 249)&quot;&gt;&lt;span class=&quot;s1&quot;&gt;images:&lt;/span&gt;&lt;span class=&quot;s2&quot; style=&quot;color: rgb(202 , 202 , 202)&quot;&gt;&amp;nbsp;[&lt;/span&gt;&lt;span class=&quot;s3&quot; style=&quot;color: rgb(67 , 192 , 160)&quot;&gt;String&lt;/span&gt;&lt;span class=&quot;s2&quot; style=&quot;color: rgb(202 , 202 , 202)&quot;&gt;]&lt;/span&gt;&lt;/p&gt;&lt;p class=&quot;p1&quot; style=&quot;margin: 0px ; font-stretch: normal ; line-height: normal ; font-family: &amp;#34;menlo&amp;#34; ; color: rgb(140 , 211 , 254) ; background-color: rgb(246 , 247 , 249)&quot;&gt;&lt;span class=&quot;s1&quot;&gt;createdAt:&lt;/span&gt;&lt;span class=&quot;s2&quot; style=&quot;color: rgb(202 , 202 , 202)&quot;&gt;&amp;nbsp;&lt;/span&gt;&lt;span class=&quot;s3&quot; style=&quot;color: rgb(67 , 192 , 160)&quot;&gt;Date&lt;/span&gt;&lt;/p&gt;&lt;p class=&quot;p1&quot; style=&quot;margin: 0px ; font-stretch: normal ; line-height: normal ; font-family: &amp;#34;menlo&amp;#34; ; color: rgb(140 , 211 , 254) ; background-color: rgb(246 , 247 , 249)&quot;&gt;&lt;span class=&quot;s1&quot;&gt;startDates:&lt;/span&gt;&lt;span class=&quot;s2&quot; style=&quot;color: rgb(202 , 202 , 202)&quot;&gt;&amp;nbsp;[&lt;/span&gt;&lt;span class=&quot;s3&quot; style=&quot;color: rgb(67 , 192 , 160)&quot;&gt;Date&lt;/span&gt;&lt;span class=&quot;s2&quot; style=&quot;color: rgb(202 , 202 , 202)&quot;&gt;]&lt;/span&gt;&lt;/p&gt;" style="text;html=1;align=center;verticalAlign=middle;resizable=0;points=[];autosize=1;strokeColor=none;fillColor=none;" parent="1" vertex="1">
          <mxGeometry x="285" y="740" width="180" height="190" as="geometry" />
        </mxCell>
      </root>
    </mxGraphModel>
  </diagram>
</mxfile>
